                 Brick 2005 DVDRip Xvid fasamoo LKRG


RIPPER                           : fasamoo
Format                           : AVI
Format/Info                      : Audio Video Interleave
File size                        : 700 MiB
Duration                         : 1h 49mn
Overall bit rate                 : 890 Kbps
Writing application              : VirtualDubMod 1.5.4.1 (build 2178/release)
Writing library                  : VirtualDubMod build 2178/release
Language                         : English
Subtitles                        : English(*.srt)
                                   English ; Spanish : French(*.idx,*.sub)
Genre                            : Crime | Drama | Mystery

Video
ID                               : 0
Format                           : MPEG-4 Visual
Format profile                   : Advanced Simple@L5
Format settings, BVOP            : Yes
Format settings, QPel            : No
Format settings, GMC             : No warppoints
Format settings, Matrix          : Custom
Codec ID                         : XVID
Codec ID/Hint                    : XviD
Duration                         : 1h 49mn
Bit rate                         : 763 Kbps
Width                            : 640 pixels
Height                           : 352 pixels
Display aspect ratio             : 16:9
Frame rate                       : 23.976 fps
Color space                      : YUV
Chroma subsampling               : 4:2:0
Bit depth                        : 8 bits
Scan type                        : Progressive
Bits/(Pixel*Frame)               : 0.141
Stream size                      : 600 MiB (86%)
Writing library                  : XviD 1.2.1 (UTC 2008-12-04)

Audio
ID                               : 1
Format                           : MPEG Audio
Format version                   : Version 1
Format profile                   : Layer 3
Mode                             : Joint stereo
Mode extension                   : MS Stereo
Codec ID                         : 55
Codec ID/Hint                    : MP3
Duration                         : 1h 49mn
Bit rate mode                    : Variable
Bit rate                         : 114 Kbps
Nominal bit rate                 : 128 Kbps
Channel(s)                       : 2 channels
Sampling rate                    : 48.0 KHz
Stream size                      : 89.8 MiB (13%)
Alignment                        : Aligned on interleaves
Interleave, duration             : 24 ms (0.58 video frame)
Interleave, preload duration     : 161 ms
Writing library                  : LAME3.98r
Encoding settings                : -m j -V 4 -q 2 -lowpass 17 --abr 128


                                 PLOT
The lonely teenager Brendan finds his former girlfriend Emily dead in the entrance of a tunnel of sewage and recalls her phone call two days ago, when she said to him that she was in trouble. Brendan, who still loved Emily, met bad elements of his high-school trying to contact her, and when he succeeded, she told him that she was OK. He hides her body in the tunnel and decides to investigate the meaning and connection of four words, including "brick" and "pin", that Emily told him to find who killed her. Using the support of his nerd friend Brain, he successively meets the small time drug dealers Kara, Dode, Brad Bramish, Laura and Tugger, to reach the teenager powerful drug dealer The Pin. Slowly, Brendan unravels the motives why Emily was killed and plots a revenge.  

  







                                 IMBD
                     
                    http://www.imdb.com/title/tt0393109/
 
http://leetleech.org/images/18215607214515046134.png 
http://leetleech.org/images/99819243373138225140.png 
http://leetleech.org/images/45654721479754929647.png 
http://leetleech.org/images/36425323616908747539.png 
http://leetleech.org/images/23162266037133261192.png 
http://leetleech.org/images/96560244096289600915.png

